<?xml version="1.0" encoding="UTF-8"?>
<svg version="1.1" xmlns="http://www.w3.org/2000/svg" width="527" height="214">
<path d="M0 0 C173.91 0 347.82 0 527 0 C527 70.62 527 141.24 527 214 C353.09 214 179.18 214 0 214 C0 143.38 0 72.76 0 0 Z " fill="#0529E7" transform="translate(0,0)"/>
<path d="M0 0 C173.91 0 347.82 0 527 0 C527 70.62 527 141.24 527 214 C353.09 214 179.18 214 0 214 C0 143.38 0 72.76 0 0 Z M321 29 C321 30.32 321 31.64 321 33 C320.44570313 32.83886719 319.89140625 32.67773438 319.3203125 32.51171875 C307.68747931 29.9462286 296.02054555 33.07557219 286 39 C285.43976135 39.5151265 284.87952271 40.03025299 284.30230713 40.56098938 C281.09483854 42.56575291 278.70319587 42.36033145 274.93652344 42.34057617 C273.88226166 42.34123329 273.88226166 42.34123329 272.80670166 42.34190369 C270.49064052 42.33981874 268.1753092 42.31650259 265.859375 42.29296875 C264.25083817 42.28737173 262.64229622 42.28310213 261.03375244 42.28010559 C256.80531634 42.26866513 252.57719063 42.239205 248.34887695 42.20599365 C244.03210651 42.17527544 239.71528579 42.16159652 235.3984375 42.14648438 C226.93214942 42.11433438 218.46611335 42.06314789 210 42 C210 39.36 210 36.72 210 34 C204.74894558 33.97535072 199.49792455 33.95716432 194.24682617 33.94506836 C192.45905979 33.94002782 190.67129755 33.93319546 188.88354492 33.92456055 C186.31948832 33.9124827 183.75548603 33.90676906 181.19140625 33.90234375 C180.3872377 33.89718246 179.58306915 33.89202118 178.75453186 33.88670349 C176.83598285 33.88650785 174.91754632 33.93798017 173 34 C171.03177114 35.96822886 171.33751619 39.34808709 171 42 C170.33468262 41.98952637 169.66936523 41.97905273 168.98388672 41.96826172 C165.9476301 41.92649535 162.91143414 41.90060848 159.875 41.875 C158.30492187 41.84986328 158.30492187 41.84986328 156.703125 41.82421875 C151.35840718 41.79039142 147.01615353 41.93593683 142 44 C138.84705277 44.25738345 136.74265819 44.3509264 133.8671875 42.9921875 C129.92711411 41.62872886 126.32148169 41.78490484 122.1875 41.875 C121.39923828 41.88402344 120.61097656 41.89304687 119.79882812 41.90234375 C117.86575334 41.92577496 115.9328362 41.96164162 114 42 C114 39.03 114 36.06 114 33 C83.64 33 53.28 33 22 33 C22 59.73 22 86.46 22 114 C52.03 114.33 82.06 114.66 113 115 C112.505 116.485 112.505 116.485 112 118 C111.91978001 119.40824893 111.89234023 120.81997231 111.90234375 122.23046875 C111.90556641 123.03291016 111.90878906 123.83535156 111.91210938 124.66210938 C111.92048828 125.49548828 111.92886719 126.32886719 111.9375 127.1875 C111.94201172 128.03248047 111.94652344 128.87746094 111.95117188 129.74804688 C111.96294597 131.83206155 111.9808811 133.91603977 112 136 C111.34 136 110.68 136 110 136 C109.76470805 148.52276056 110.91020548 157.00175147 117.75 167.75 C125.31227863 175.31227863 133.34328207 178.24098073 143.94726562 178.32226562 C144.89279297 178.31904297 145.83832031 178.31582031 146.8125 178.3125 C147.74642578 178.32861328 148.68035156 178.34472656 149.64257812 178.36132812 C155.49256071 178.36538779 160.31668507 177.57032481 165.81518555 175.54760742 C169.19792549 174.69974893 171.28535182 175.68967231 174.41870117 177.05029297 C177.23575043 178.08673689 179.31049163 178.23028665 182.30078125 178.1953125 C183.27724609 178.18886719 184.25371094 178.18242187 185.25976562 178.17578125 C186.26716797 178.15902344 187.27457031 178.14226562 188.3125 178.125 C189.33923828 178.11597656 190.36597656 178.10695312 191.42382812 178.09765625 C193.94931927 178.07416331 196.47468992 178.03829451 199 178 C199 181.96 199 185.92 199 190 C228.04 190 257.08 190 287 190 C287 186.04 287 182.08 287 178 C288.93496338 178.03552979 290.86992676 178.07105957 292.86352539 178.10766602 C301.92967277 178.27057095 310.99599448 178.4209471 320.0625 178.5625 C320.8774292 178.57523327 321.6923584 178.58796654 322.53198242 178.60108566 C350.38152326 179.03059296 378.15801808 178.91216171 406 178 C406 170.74 406 163.48 406 156 C410.19921875 157.953125 410.19921875 157.953125 414.3984375 159.90625 C416.83692626 161.1291873 416.83692626 161.1291873 419 161 C419.66 145.82 420.32 130.64 421 115 C429.36243889 113.32751222 435.15075322 112.38358441 443 115 C445.07097105 115.06107312 447.14402859 115.05835706 449.21557617 115.02172852 C450.51458862 115.00130493 451.81360107 114.98088135 453.15197754 114.95983887 C454.53231064 114.93299959 455.91264108 114.90602317 457.29296875 114.87890625 C459.17562439 114.84790833 459.17562439 114.84790833 461.09631348 114.81628418 C465.79347512 114.73740574 470.4904799 114.64939938 475.1875 114.5625 C485.685625 114.376875 496.18375 114.19125 507 114 C507 85.95 507 57.9 507 29 C492.48 29 477.96 29 463 29 C463 33.29 463 37.58 463 42 C460.89625 41.938125 458.7925 41.87625 456.625 41.8125 C450.93422299 41.78953016 446.50176186 42.54598529 441.16796875 44.390625 C437.86490565 45.31905355 435.29763688 44.79387555 432 44 C430.90751953 43.74089844 430.90751953 43.74089844 429.79296875 43.4765625 C427.85600572 43.00843483 425.92711758 42.50713621 424 42 C424 37.71 424 33.42 424 29 C409.15 29 394.3 29 379 29 C379 33.29 379 37.58 379 42 C374.38 42 369.76 42 365 42 C365 37.71 365 33.42 365 29 C350.48 29 335.96 29 321 29 Z " fill="#FDBB52" transform="translate(0,0)"/>
<path d="M0 0 C5.61 0 11.22 0 17 0 C17 15.84 17 31.68 17 48 C13.04 48 9.08 48 5 48 C4.67 38.43 4.34 28.86 4 19 C1.02830385 25.68631634 -1.55960899 32.23502048 -3.88671875 39.1328125 C-5.00906621 42.39996009 -6.0728847 45.10932705 -8 48 C-10.27734375 48.46875 -10.27734375 48.46875 -12.9375 48.5 C-13.81277344 48.5309375 -14.68804687 48.561875 -15.58984375 48.59375 C-18 48 -18 48 -19.6640625 45.921875 C-21.18968814 42.58512652 -22.33889871 39.25111624 -23.4375 35.75 C-25.288584 29.86074267 -27.45311595 24.73048911 -30 19 C-30.33 28.57 -30.66 38.14 -31 48 C-34.63 48 -38.26 48 -42 48 C-42 32.49 -42 16.98 -42 1 C-36.06 1 -30.12 1 -24 1 C-18.555 15.85 -18.555 15.85 -13 31 C-10.56272586 28.56272586 -10.09544746 26.65222287 -9.0625 23.375 C-6.4671803 15.34004344 -3.48544896 7.69202529 0 0 Z " fill="#F1F1F3" transform="translate(81,49)"/>
<path d="M0 0 C2.33294775 -0.04241723 4.66702567 -0.04092937 7 0 C8 1 8 1 8.09765625 2.84765625 C8.06510417 4.8984375 8.03255208 6.94921875 8 9 C10.97 9 13.94 9 17 9 C17 12.3 17 15.6 17 19 C13.7 19 10.4 19 7 19 C7.14021805 21.64624284 7.28689776 24.29184578 7.4375 26.9375 C7.47681641 27.69224609 7.51613281 28.44699219 7.55664062 29.22460938 C7.44038024 32.91944187 7.44038024 32.91944187 9 36 C11.67058851 36.14115161 14.32432238 36.04247107 17 36 C17 39.63 17 43.26 17 47 C12.81695434 49.09152283 7.55643567 48.42640441 3 48 C-1.14452932 45.88544423 -2.62266776 43.31210313 -4.38696289 39.06616211 C-5.51274497 35.27185954 -5.3107808 31.4853584 -5.1875 27.5625 C-5.16719727 26.32209961 -5.16719727 26.32209961 -5.14648438 25.05664062 C-5.11146992 23.0374736 -5.05767562 21.01864682 -5 19 C-5.73605469 19.15597656 -6.47210938 19.31195313 -7.23046875 19.47265625 C-8.20628906 19.66730469 -9.18210938 19.86195312 -10.1875 20.0625 C-11.63189453 20.35833984 -11.63189453 20.35833984 -13.10546875 20.66015625 C-16.08048806 21.00945001 -18.14276979 20.86358426 -21 20 C-21.66 19.34 -22.32 18.68 -23 18 C-25.21072977 17.75746187 -25.21072977 17.75746187 -27.625 17.875 C-28.85089844 17.90207031 -28.85089844 17.90207031 -30.1015625 17.9296875 C-30.72804687 17.95289062 -31.35453125 17.97609375 -32 18 C-32.33 19.32 -32.66 20.64 -33 22 C-31.948125 22.16435547 -31.948125 22.16435547 -30.875 22.33203125 C-15.7056143 24.86713239 -15.7056143 24.86713239 -10.9375 29.6875 C-8.77942703 33.37710863 -8.46123703 35.0210091 -9.2890625 39.10546875 C-10.77634639 43.06883517 -13.53982072 45.27879841 -17.24609375 47.109375 C-23.91224367 49.26523625 -32.3258803 49.27371327 -38.6875 46.1875 C-41.21240879 44.5201074 -43.05802294 43.24119407 -45 41 C-45 38.9375 -45 38.9375 -44 37 C-41.52617424 35.59593673 -39.85311702 34.92002028 -37 35.1875 C-35 36 -35 36 -32.8125 37.5625 C-28.8683041 39.57842235 -25.34666621 39.25568625 -21 39 C-21.21761544 37.02272886 -21.21761544 37.02272886 -22 35 C-25.50650063 33.73961619 -28.94647004 32.86695008 -32.56640625 32.02148438 C-37.63727976 30.72092355 -40.72150505 29.34144448 -44 25 C-45.03226222 21.53533266 -44.89877007 18.49459667 -44 15 C-41.28595467 11.41486851 -38.23491397 9.41163799 -34 8 C-26.98403092 7.41061326 -21.33866669 7.88626899 -15 11 C-12.5 13.1875 -12.5 13.1875 -11 15 C-10.67 13.02 -10.34 11.04 -10 9 C-7.36 8.67 -4.72 8.34 -2 8 C-1.34 5.36 -0.68 2.72 0 0 Z " fill="#B9AD9D" transform="translate(186,50)"/>
<path d="M0 0 C4.05694059 1.99739964 6.92449398 4.85106854 9.15625 8.76953125 C11.37550243 15.35824514 11.33635368 23.95848816 8.84765625 30.50390625 C6.20744754 34.69182351 3.8065329 37.78844737 -0.96484375 39.37890625 C-5.80697302 39.87953317 -9.69187286 40.1214726 -13.96484375 37.62890625 C-15.96484375 35.37890625 -15.96484375 35.37890625 -17.96484375 31.37890625 C-17.96484375 37.97890625 -17.96484375 44.57890625 -17.96484375 51.37890625 C-21.92484375 51.37890625 -25.88484375 51.37890625 -29.96484375 51.37890625 C-29.96484375 34.54890625 -29.96484375 17.71890625 -29.96484375 0.37890625 C-26.66484375 0.37890625 -23.36484375 0.37890625 -19.96484375 0.37890625 C-19.63484375 3.01890625 -19.30484375 5.65890625 -18.96484375 8.37890625 C-18.09859375 6.98671875 -18.09859375 6.98671875 -17.21484375 5.56640625 C-12.64283519 -0.91060587 -7.68065668 -2.42788154 0 0 Z " fill="#F4F4F3" transform="translate(288.96484375,122.62109375)"/>
<path d="M0 0 C3.96 0 7.92 0 12 0 C12.05437005 2.85442753 12.09384974 5.70780076 12.125 8.5625 C12.15013672 9.76229492 12.15013672 9.76229492 12.17578125 10.98632812 C12.21723982 16.06500335 11.64056075 20.18811906 10 25 C10.66 25 11.32 25 12 25 C12.020625 24.13375 12.04125 23.2675 12.0625 22.375 C13.37139987 17.66296048 15.7790198 15.38754285 20 13 C24.97018532 12.13218986 27.84052629 12.60301336 32.25 15 C36.46509641 18.00367107 38.7628394 20.94377842 40 26 C40.87908996 33.65226878 41.42709477 41.15857917 36.46875 47.48046875 C32.35224805 51.73929657 29.33072163 53.24686833 23.4375 53.5 C19.77477803 53.36065732 18.17873528 53.10213445 14.9375 51.25 C13.18184888 49.21117935 11.98043983 47.49566503 11 45 C10.67 47.31 10.34 49.62 10 52 C6.7 52 3.4 52 0 52 C0 34.84 0 17.68 0 0 Z " fill="#F3F3F3" transform="translate(396,45)"/>
<path d="M0 0 C5.67507225 2.00296668 9.30675089 5.61350179 12 11 C13.16890227 28.82096907 13.16890227 28.82096907 8 36 C3.92309376 39.82982102 -0.29493132 40.40940225 -5.7109375 40.34765625 C-9.70174842 39.74154333 -11.30051704 37.96284715 -14 35 C-14.66 33.35 -15.32 31.7 -16 30 C-16 36.93 -16 43.86 -16 51 C-19.63 51 -23.26 51 -27 51 C-27 34.5 -27 18 -27 1 C-24.03 1 -21.06 1 -18 1 C-18 4.63 -18 8.26 -18 12 C-17.34 12 -16.68 12 -16 12 C-15.9071875 10.6696875 -15.9071875 10.6696875 -15.8125 9.3125 C-14.81004136 5.22555325 -13.15975486 3.69735171 -10 1 C-6.79610447 -0.60194777 -3.48419843 -0.3516761 0 0 Z " fill="#C1B394" transform="translate(243,122)"/>
<path d="M0 0 C3.13195753 2.1445125 5.23564892 4.2001872 6.625 7.8125 C6.625 9.1325 6.625 10.4525 6.625 11.8125 C1.18 13.2975 1.18 13.2975 -4.375 14.8125 C-4.808125 14.02875 -5.24125 13.245 -5.6875 12.4375 C-7.26720247 9.59551625 -7.26720247 9.59551625 -10.375 7.8125 C-14.770212 7.56967061 -18.37288746 8.03586278 -21.875 10.75 C-25.74853989 16.07611735 -24.89795403 22.46638223 -24.375 28.8125 C-23.39806729 31.84002415 -22.42036799 33.29961933 -20.375 35.8125 C-16.67423948 37.04608684 -13.22246075 37.38651632 -9.375 36.8125 C-6.40641843 34.60509319 -5.54634209 33.32652627 -4.375 29.8125 C-7.015 29.8125 -9.655 29.8125 -12.375 29.8125 C-12.375 26.8425 -12.375 23.8725 -12.375 20.8125 C-5.445 20.8125 1.485 20.8125 8.625 20.8125 C8.625 29.0625 8.625 37.3125 8.625 45.8125 C5.655 45.8125 2.685 45.8125 -0.375 45.8125 C-0.705 42.1825 -1.035 38.5525 -1.375 34.8125 C-2.24125 36.6996875 -2.24125 36.6996875 -3.125 38.625 C-4.76311977 41.90123953 -6.08146088 44.00636564 -9.375 45.8125 C-14.87898334 47.64716111 -21.2462235 47.9065493 -26.765625 45.9765625 C-32.30467252 42.82649349 -35.97125829 38.02372514 -37.984375 31.984375 C-39.90926324 21.28199637 -38.24366007 13.0299894 -32.625 4 C-24.4773251 -3.92135059 -10.12488072 -5.25363269 0 0 Z " fill="#F3F3F3" transform="translate(324.375,51.1875)"/>
<path d="M0 0 C0.78181641 -0.02449219 1.56363281 -0.04898438 2.36914062 -0.07421875 C8.14346659 -0.10316274 11.43383779 1.08307382 16.1875 4.375 C19.64742715 7.92597786 20.17626098 9.3188049 21.1875 14.375 C15.7425 15.86 15.7425 15.86 10.1875 17.375 C9.73375 16.405625 9.28 15.43625 8.8125 14.4375 C7.52963779 11.30420418 7.52963779 11.30420418 5.1875 10.375 C3.52305539 10.2794069 1.85468037 10.24515355 0.1875 10.25 C-1.1428125 10.24613281 -1.1428125 10.24613281 -2.5 10.2421875 C-4.83926966 10.22372098 -4.83926966 10.22372098 -6.8125 11.375 C-6.4825 13.025 -6.1525 14.675 -5.8125 16.375 C-4.00265625 16.82939453 -4.00265625 16.82939453 -2.15625 17.29296875 C17.53195939 22.39168909 17.53195939 22.39168909 22.1875 29.375 C22.83213597 33.69745383 23.10397813 38.24791821 21.34765625 42.32421875 C18.24951227 46.46550885 14.1471192 48.49328992 9.1875 49.375 C-9.56702726 50.76565496 -9.56702726 50.76565496 -16.39453125 45.05078125 C-18.90941985 42.41118743 -19.78877365 40.63124453 -20.125 37 C-20.021875 36.13375 -19.91875 35.2675 -19.8125 34.375 C-16.1825 33.385 -12.5525 32.395 -8.8125 31.375 C-8.379375 32.509375 -7.94625 33.64375 -7.5 34.8125 C-6.943125 35.988125 -6.38625 37.16375 -5.8125 38.375 C-3.00022378 39.31242541 -1.22503156 39.50970844 1.6875 39.5 C2.4609375 39.50257813 3.234375 39.50515625 4.03125 39.5078125 C6.37197017 39.45645813 6.37197017 39.45645813 9.1875 38.375 C9.1875 36.725 9.1875 35.075 9.1875 33.375 C8.23496338 33.1119104 8.23496338 33.1119104 7.26318359 32.84350586 C4.35522754 32.0248974 1.45946158 31.16916771 -1.4375 30.3125 C-2.43652344 30.03728516 -3.43554688 29.76207031 -4.46484375 29.47851562 C-10.94980671 27.52443738 -15.3723 25.4034196 -18.8125 19.375 C-19.87328898 15.88063629 -19.67476416 12.9148213 -18.8125 9.375 C-14.24208844 1.40607727 -8.65279922 0.01405816 0 0 Z " fill="#F3F3F3" transform="translate(146.8125,112.625)"/>
<path d="M0 0 C3.92066079 3.56151629 6.73414367 7.66293734 7.3359375 12.953125 C7.41753034 19.83956093 7.26429255 25.37446748 3 31 C-1.80816786 35.80816786 -6.72321662 37.09937362 -13.375 37.375 C-19.67218324 37.2209928 -23.96706295 35.81101482 -28.6015625 31.515625 C-32.12604765 27.06571637 -32.47683156 22.40061417 -32.5625 16.875 C-32.57732422 16.19405273 -32.59214844 15.51310547 -32.60742188 14.81152344 C-32.48185376 8.6676552 -29.92317503 5.30781003 -26.125 0.75 C-19.11054169 -5.02661273 -7.60906273 -4.55865897 0 0 Z " fill="#C0B195" transform="translate(385,61)"/>
<path d="M0 0 C5.89316028 3.30940531 8.47630563 7.76094815 10.59375 14.11328125 C10.59375 16.75328125 10.59375 19.39328125 10.59375 22.11328125 C2.01375 22.11328125 -6.56625 22.11328125 -15.40625 22.11328125 C-13.87312233 26.42936921 -13.87312233 26.42936921 -11.40625 30.11328125 C-10.05877916 30.34403207 -8.70247435 30.52481188 -7.34375 30.67578125 C-6.044375 30.82015625 -4.745 30.96453125 -3.40625 31.11328125 C-3.15875 30.30890625 -2.91125 29.50453125 -2.65625 28.67578125 C-1.40625 26.11328125 -1.40625 26.11328125 0.28125 25.17578125 C3.61883384 25.08557628 6.44334551 26.08334132 9.59375 27.11328125 C9.39470656 31.39271531 8.87172034 32.83531091 5.78125 35.92578125 C-0.36162509 40.14147984 -7.14477487 39.7212995 -14.40625 39.11328125 C-19.42535637 37.78657479 -23.73818855 34.978847 -26.5546875 30.5625 C-28.79353947 24.12323308 -28.63717271 15.93027095 -26.5546875 9.47265625 C-21.09812298 -0.25264923 -10.46260574 -3.85553815 0 0 Z " fill="#F2F2F3" transform="translate(363.40625,122.88671875)"/>
<path d="M0 0 C4.03423391 5.09587441 5.12768986 8.80206075 5.09765625 15.19921875 C5.09443359 16.40771484 5.09121094 17.61621094 5.08789062 18.86132812 C5.07532227 20.7552832 5.07532227 20.7552832 5.0625 22.6875 C5.05798828 23.96173828 5.05347656 25.23597656 5.04882812 26.54882812 C5.03702873 29.69926564 5.02056597 32.84960949 5 36 C1.7 36 -1.6 36 -5 36 C-5.66 33.36 -6.32 30.72 -7 28 C-7.53625 28.928125 -8.0725 29.85625 -8.625 30.8125 C-11.57199518 34.76767774 -14.06651088 36.53317757 -18.98828125 37.31640625 C-22.71217003 37.53380842 -24.78727547 37.13578161 -27.9375 35.125 C-30.89730921 32.0754996 -31.19529747 30.28260567 -31.3125 26.125 C-31.25309431 22.94908021 -31.20012209 21.3547619 -29.625 18.5625 C-23.14492447 14.70531219 -15.303944 13.53147213 -8 12 C-8.33 10.35 -8.66 8.7 -9 7 C-12.33200185 6.58228196 -12.33200185 6.58228196 -16 7 C-18.47208796 9.35832772 -18.47208796 9.35832772 -20 12 C-24.455 11.01 -24.455 11.01 -29 10 C-29.33 8.68 -29.66 7.36 -30 6 C-23.34083088 -4.19685271 -10.32723162 -6.32279487 0 0 Z " fill="#C57697" transform="translate(469,61)"/>
<path d="M0 0 C2.81920705 2.68007735 4.75526487 5.26579462 6 9 C6 12.63 6 16.26 6 20 C-2.25 20 -10.5 20 -19 20 C-16.97056209 26.72214098 -16.97056209 26.72214098 -14.09765625 28.04296875 C-11.98257865 28.1931758 -10.10125003 28.31733164 -8 28 C-6.6256709 26.70896357 -5.29103643 25.3743291 -4 24 C-0.12790678 23.65427739 3.28983366 23.81274677 7 25 C5.7944117 29.42049045 4.60722528 32.11421977 1 35 C-5.22433643 38.03069784 -12.5169499 37.93593502 -19.2265625 36.53515625 C-24.44919242 34.59104952 -27.29771249 30.80130821 -30.11328125 26.16796875 C-32.17307266 21.13191486 -31.83654466 14.7628583 -30.27734375 9.61328125 C-27.89617951 4.5521022 -24.6576687 0.59460122 -19.8125 -2.3125 C-12.82903874 -4.01956831 -6.2764433 -3.69202547 0 0 Z " fill="#C57797" transform="translate(235,61)"/>
<path d="M0 0 C4.7516852 4.87672955 5.12887622 8.67824057 5.09765625 15.296875 C5.09443359 16.50214844 5.09121094 17.70742187 5.08789062 18.94921875 C5.07532227 20.83060547 5.07532227 20.83060547 5.0625 22.75 C5.05798828 24.01972656 5.05347656 25.28945312 5.04882812 26.59765625 C5.03704556 29.73181836 5.02059416 32.86588541 5 36 C1.7 36 -1.6 36 -5 36 C-5 33.03 -5 30.06 -5 27 C-5.66 27 -6.32 27 -7 27 C-7.226875 27.7425 -7.45375 28.485 -7.6875 29.25 C-9.52092678 33.09146563 -12.22976824 35.11488412 -16 37 C-20.63213493 37.55512815 -23.98172127 37.6364242 -28 35.125 C-31.3015157 31.61713957 -31.41460122 28.93036885 -31.33203125 24.25390625 C-31 22 -31 22 -29.0625 19.125 C-22.3110251 14.44030313 -15.06411068 13.48822382 -7 13 C-7.66 11.02 -8.32 9.04 -9 7 C-11.78938212 6.58109782 -11.78938212 6.58109782 -15 7 C-15.763125 7.86625 -16.52625 8.7325 -17.3125 9.625 C-20 12 -20 12 -22.27734375 11.9921875 C-24.68678133 11.51258381 -26.78206206 11.0631438 -29 10 C-30 7 -30 7 -28.9375 4.5625 C-22.04296396 -4.55607992 -9.48983199 -5.50410256 0 0 Z " fill="#C77797" transform="translate(133,61)"/>
<path d="M0 0 C3.96 0 7.92 0 12 0 C12.04898438 1.68609375 12.09796875 3.3721875 12.1484375 5.109375 C12.22347337 7.32293316 12.29902085 9.53647402 12.375 11.75 C12.4059375 12.86117187 12.436875 13.97234375 12.46875 15.1171875 C12.50742188 16.18710938 12.54609375 17.25703125 12.5859375 18.359375 C12.6173584 19.34389648 12.6487793 20.32841797 12.68115234 21.34277344 C13.00581298 24.04844449 13.51002039 25.73035729 15 28 C17.34872531 29.16977494 17.34872531 29.16977494 20 29 C22.82901133 26.79965786 23.86039845 25.41880464 25 22 C25.14777936 20.30132812 25.24747066 18.59822511 25.31640625 16.89453125 C25.35830078 15.91162109 25.40019531 14.92871094 25.44335938 13.91601562 C25.48267578 12.89185547 25.52199219 11.86769531 25.5625 10.8125 C25.60568359 9.77673828 25.64886719 8.74097656 25.69335938 7.67382812 C25.79944263 5.11604298 25.90022586 2.55803902 26 0 C29.96 0 33.92 0 38 0 C38 12.54 38 25.08 38 38 C34.7 38 31.4 38 28 38 C27.67 34.37 27.34 30.74 27 27 C26.443125 28.423125 25.88625 29.84625 25.3125 31.3125 C24.00875511 34.1916033 23.13286279 35.87472937 20.8125 38.0625 C16.77993038 39.40668987 13.19669775 39.80535221 9 39 C5.45347837 37.03889376 3.2422269 34.36334035 1 31 C0.10702526 26.94691625 -0.11900219 23.08642442 -0.09765625 18.9453125 C-0.09443359 17.83671875 -0.09121094 16.728125 -0.08789062 15.5859375 C-0.07951172 14.44382813 -0.07113281 13.30171875 -0.0625 12.125 C-0.05798828 10.9596875 -0.05347656 9.794375 -0.04882812 8.59375 C-0.03708794 5.72914449 -0.01915386 2.86456554 0 0 Z " fill="#C57797" transform="translate(172,123)"/>
<path d="M0 0 C1.98 0 3.96 0 6 0 C6 2.31 6 4.62 6 7 C9.3 7 12.6 7 16 7 C16 10.3 16 13.6 16 17 C12.7 17 9.4 17 6 17 C6.14021805 19.64624284 6.28689776 22.29184578 6.4375 24.9375 C6.47681641 25.69224609 6.51613281 26.44699219 6.55664062 27.22460938 C6.44038024 30.91944187 6.44038024 30.91944187 8 34 C10.67058851 34.14115161 13.32432238 34.04247107 16 34 C16 37.63 16 41.26 16 45 C11.82691937 47.08654031 6.54530134 46.44906849 2 46 C-1.52121839 43.95769333 -2.75217677 42.37173484 -5 39 C-5.22705078 36.5480957 -5.22705078 36.5480957 -5.1953125 33.67578125 C-5.18886719 32.64775391 -5.18242187 31.61972656 -5.17578125 30.56054688 C-5.15902344 29.48869141 -5.14226562 28.41683594 -5.125 27.3125 C-5.11597656 26.22904297 -5.10695312 25.14558594 -5.09765625 24.02929688 C-5.0740734 21.3526429 -5.04116126 18.67643203 -5 16 C-6.65 16 -8.3 16 -10 16 C-10 13.36 -10 10.72 -10 8 C-7.36 7.67 -4.72 7.34 -2 7 C-1.34 4.69 -0.68 2.38 0 0 Z " fill="#F8F8F3" transform="translate(187,52)"/>
<path d="M0 0 C3.96 0 7.92 0 12 0 C12 17.16 12 34.32 12 52 C8.04 52 4.08 52 0 52 C0 34.84 0 17.68 0 0 Z " fill="#BDAF96" transform="translate(479,45)"/>
<path d="M0 0 C3.63 0 7.26 0 11 0 C11 17.16 11 34.32 11 52 C7.04 52 3.08 52 -1 52 C-1.02464113 44.75512951 -1.0428318 37.51028318 -1.05493164 30.26538086 C-1.05997356 27.79857967 -1.06680691 25.33178148 -1.07543945 22.86499023 C-1.08751125 19.32795471 -1.09322956 15.79095855 -1.09765625 12.25390625 C-1.10281754 11.14350479 -1.10797882 10.03310333 -1.11329651 8.88905334 C-1.11337204 7.86807053 -1.11344757 6.84708771 -1.11352539 5.79516602 C-1.115746 4.89137711 -1.11796661 3.9875882 -1.12025452 3.05641174 C-1 1 -1 1 0 0 Z " fill="#C27598" transform="translate(338,45)"/>
<path d="M0 0 C0 4.29 0 8.58 0 13 C-1.4025 12.9175 -2.805 12.835 -4.25 12.75 C-7.69746816 12.73915891 -8.65851158 12.74388368 -11.5 14.875 C-13.68962906 17.9769745 -14.1501736 19.81820415 -14.31640625 23.5703125 C-14.35830078 24.46621094 -14.40019531 25.36210938 -14.44335938 26.28515625 C-14.48267578 27.22230469 -14.52199219 28.15945312 -14.5625 29.125 C-14.60568359 30.06988281 -14.64886719 31.01476562 -14.69335938 31.98828125 C-14.7995894 34.32534172 -14.90031271 36.6626513 -15 39 C-18.96 39 -22.92 39 -27 39 C-27 26.46 -27 13.92 -27 1 C-23.7 1 -20.4 1 -17 1 C-17 5.29 -17 9.58 -17 14 C-16.34 14 -15.68 14 -15 14 C-15.12375 12.700625 -15.12375 12.700625 -15.25 11.375 C-14.93746818 7.15582043 -13.65717344 5.24765643 -11 2 C-7.59079146 -0.58629613 -4.15494595 -0.15980561 0 0 Z " fill="#BDAF96" transform="translate(272,58)"/>
<path d="M0 0 C0 4.29 0 8.58 0 13 C-1.381875 12.896875 -2.76375 12.79375 -4.1875 12.6875 C-7.6246773 12.43099423 -8.83738594 12.89097466 -11.75 14.84375 C-14.98800617 19.38595309 -14.77953796 23.35911389 -14.8125 28.8125 C-14.83763672 29.79154297 -14.86277344 30.77058594 -14.88867188 31.77929688 C-14.9473663 34.18576829 -14.97658903 36.59292674 -15 39 C-18.96 39 -22.92 39 -27 39 C-27 26.46 -27 13.92 -27 1 C-23.7 1 -20.4 1 -17 1 C-17 5.29 -17 9.58 -17 14 C-16.34 14 -15.68 14 -15 14 C-15.103125 12.96875 -15.20625 11.9375 -15.3125 10.875 C-14.90167957 5.78082662 -13.60018491 4.51645968 -10 1 C-6.52674819 -0.1577506 -3.63932552 -0.06866652 0 0 Z " fill="#C47698" transform="translate(404,122)"/>
<path d="M0 0 C3.96 0 7.92 0 12 0 C12.05437005 2.85442753 12.09384974 5.70780076 12.125 8.5625 C12.15013672 9.76229492 12.15013672 9.76229492 12.17578125 10.98632812 C12.21723982 16.06500335 11.64056075 20.18811906 10 25 C11.32 25.33 12.64 25.66 14 26 C13.67 26.66 13.34 27.32 13 28 C12.92883618 30.37402501 12.91590915 32.75000677 12.9375 35.125 C12.94652344 36.40632813 12.95554687 37.68765625 12.96484375 39.0078125 C12.97644531 39.99523437 12.98804688 40.98265625 13 42 C12.34 42 11.68 42 11 42 C10.67 45.3 10.34 48.6 10 52 C6.7 52 3.4 52 0 52 C0 34.84 0 17.68 0 0 Z " fill="#F7F7F3" transform="translate(396,45)"/>
<path d="M0 0 C3.63 0 7.26 0 11 0 C11 17.16 11 34.32 11 52 C7.37 52 3.74 52 0 52 C0 34.84 0 17.68 0 0 Z " fill="#CB7A95" transform="translate(303,109)"/>
<path d="M0 0 C3.96 0 7.92 0 12 0 C12 12.54 12 25.08 12 38 C8.04 38 4.08 38 0 38 C0 25.46 0 12.92 0 0 Z " fill="#BEB096" transform="translate(320,123)"/>
<path d="M0 0 C3.40994707 0.69590757 5.07036249 1.76266854 7.1484375 4.578125 C9.01894108 8.76677404 8.70065919 13.16467462 8.0625 17.625 C6.68997293 20.74437969 6.082957 22.1147715 3.0625 23.625 C0.1875 24 0.1875 24 -2.9375 23.625 C-5.8073647 20.86392078 -6.8513715 19.17786897 -7.46875 15.21484375 C-7.4584375 14.00957031 -7.448125 12.80429688 -7.4375 11.5625 C-7.4478125 10.35464844 -7.458125 9.14679688 -7.46875 7.90234375 C-6.68613666 3.07431 -4.77341125 1.01561941 0 0 Z " fill="#0B2CE2" transform="translate(371.9375,66.375)"/>
<path d="M0 0 C2.84287154 2.18682426 3.83071489 3.82654638 4.34375 7.3828125 C4.48405634 11.29969776 4.23193041 14.36863388 2.875 18.0625 C0.32894764 20.69342077 -1.37995604 20.92612155 -5 21 C-8.14239868 20.19195462 -8.92483923 19.10626177 -10.8125 16.4375 C-12.35376369 11.97594722 -12.24704612 8.53236761 -11 4 C-8.13809486 -0.51300426 -5.13366094 -0.82505265 0 0 Z " fill="#072BE5" transform="translate(239,132)"/>
<path d="M0 0 C2.80819199 2.13909209 3.87566353 3.33534844 4.53125 6.83984375 C4.44787645 15.1042471 4.44787645 15.1042471 2.375 19.25 C0 21 0 21 -3 21.625 C-6 21 -6 21 -8.3125 18.625 C-11.04833468 14.36925716 -11.55852479 11.02672307 -11 6 C-8.39318777 0.43090114 -6.10019262 -0.61001926 0 0 Z " fill="#082CEA" transform="translate(282,132)"/>
<path d="M0 0 C2.61593153 1.83115207 2.96989455 2.90968366 4 6 C4.61034057 11.14429911 4.84753358 14.78923774 1.8125 19.125 C-1 21 -1 21 -3.5 21.625 C-7.41072561 20.6473186 -8.71264548 19.33300231 -11 16 C-11.89599618 10.84802199 -11.74933212 6.52863753 -9.4375 1.8125 C-6.10218575 -0.66760547 -4.06034781 -0.59059604 0 0 Z " fill="#062BEA" transform="translate(419,68)"/>
<path d="M0 0 C0.99 0.66 1.98 1.32 3 2 C3.375 5.5 3.375 5.5 3 9 C-0.80455581 11.53637054 -3.53947531 11.59473663 -8 11 C-10 9.8125 -10 9.8125 -11 8 C-11.41826612 5.21155919 -11.36703913 3.66525842 -10 1.1875 C-6.86940917 -0.6712883 -3.55225172 -0.55145843 0 0 Z " fill="#BEB096" transform="translate(330,107)"/>
<path d="M0 0 C-0.125 3.25 -0.125 3.25 -1 7 C-3.91234794 9.58139931 -5.88337587 10.84773307 -9.75 11.375 C-12 11 -12 11 -14 9 C-14.3125 6.5 -14.3125 6.5 -14 4 C-11.17991324 2.11994216 -9.65676336 1.54324907 -6.4375 0.875 C-5.65246094 0.70742187 -4.86742188 0.53984375 -4.05859375 0.3671875 C-2 0 -2 0 0 0 Z " fill="#112BE1" transform="translate(127,79)"/>
<path d="M0 0 C0.31577173 3.473489 0.4218681 5.37563521 -1.5625 8.3125 C-4.72988712 10.50530647 -7.17924494 10.85849055 -11 11 C-13 9 -13 9 -13.3125 6.5 C-13.209375 5.675 -13.10625 4.85 -13 4 C-10.16248315 2.1083221 -8.61880572 1.54066697 -5.375 0.875 C-4.57835937 0.70742187 -3.78171875 0.53984375 -2.9609375 0.3671875 C-1 0 -1 0 0 0 Z " fill="#0A29E4" transform="translate(462,79)"/>
<path d="M0 0 C1.9375 1.875 1.9375 1.875 3 4 C3 4.99 3 5.98 3 7 C-1.95 7 -6.9 7 -12 7 C-11 2 -11 2 -9.375 0.125 C-5.89022914 -1.52568093 -3.66368347 -0.9991864 0 0 Z " fill="#1B2EDD" transform="translate(228,68)"/>
<path d="M0 0 C3.02363717 0.81890173 4.23858434 1.26823294 6 3.8125 C6 4.8025 6 5.7925 6 6.8125 C1.38 6.8125 -3.24 6.8125 -8 6.8125 C-5.14634146 -0.32164634 -5.14634146 -0.32164634 0 0 Z " fill="#0B2FEA" transform="translate(356,131.1875)"/>
<path d="M0 0 C3.39417765 3.12621626 5.6062718 5.56541027 7 10 C4.69 10 2.38 10 0 10 C0 6.7 0 3.4 0 0 Z " fill="#EDAE5A" transform="translate(274,96)"/>
<path d="M0 0 C1.98 0 3.96 0 6 0 C6 2.31 6 4.62 6 7 C4.33388095 7.042721 2.66617115 7.04063832 1 7 C0 6 0 6 -0.0625 2.9375 C-0.041875 1.968125 -0.02125 0.99875 0 0 Z " fill="#E1A561" transform="translate(369,75)"/>
<path d="M0 0 C0.99 0.495 0.99 0.495 2 1 C3.40389804 5.39663876 2.91464455 9.78319247 2.5625 14.3125 C2.51029297 15.05306641 2.45808594 15.79363281 2.40429688 16.55664062 C2.27549848 18.37152709 2.13856738 20.18583325 2 22 C1.67 22 1.34 22 1 22 C0.67 14.74 0.34 7.48 0 0 Z " fill="#454FC7" transform="translate(226,151)"/>
<path d="M0 0 C0.66 0.33 1.32 0.66 2 1 C1.195625 1.66 0.39125 2.32 -0.4375 3 C-3.75148924 6.87979228 -3.74577025 9.00014825 -4 14 C-4.33 14 -4.66 14 -5 14 C-5.78774617 5.96498906 -5.78774617 5.96498906 -2.5 1.9375 C-1.2625 0.9784375 -1.2625 0.9784375 0 0 Z " fill="#AA68A2" transform="translate(107,78)"/>
<path d="M0 0 C0.66 0.33 1.32 0.66 2 1 C-0.97 3.97 -3.94 6.94 -7 10 C-7 6.04435836 -5.59478606 4.89133304 -3 2 C-2.01 1.34 -1.02 0.68 0 0 Z " fill="#C8CAF0" transform="translate(297,51)"/>
<path d="M0 0 C0 0.33 0 0.66 0 1 C-2.31 1 -4.62 1 -7 1 C-7.28875 1.598125 -7.5775 2.19625 -7.875 2.8125 C-9 5 -9 5 -11 8 C-11.21620175 5.3335118 -11.30894168 3.55995679 -10 1.1875 C-6.76011038 -0.73618446 -3.7174181 -0.18282384 0 0 Z " fill="#8F86A9" transform="translate(330,107)"/>
<path d="M0 0 C1.670625 0.061875 1.670625 0.061875 3.375 0.125 C3.375 0.455 3.375 0.785 3.375 1.125 C2.488125 1.3725 1.60125 1.62 0.6875 1.875 C-2.72927135 3.16434768 -4.9047748 4.72480129 -7.625 7.125 C-5.06433824 0.17463235 -5.06433824 0.17463235 0 0 Z " fill="#344DEB" transform="translate(415.625,67.875)"/>
<path d="M0 0 C-1.49097658 3.7952131 -3.75700849 5.61042731 -7 8 C-4.18918919 0 -4.18918919 0 0 0 Z " fill="#D8D9F1" transform="translate(345,125)"/>
<path d="M0 0 C0 0.33 0 0.66 0 1 C-1.36125 1.4021875 -1.36125 1.4021875 -2.75 1.8125 C-5.71471963 2.89576294 -7.6169754 3.98359457 -10 6 C-7.83322503 -0.036016 -6.28508493 -0.13663228 0 0 Z " fill="#2E48EB" transform="translate(282,132)"/>
</svg>
